<?xml version="1.0" encoding="UTF-8"?> <svg xmlns="http://www.w3.org/2000/svg" width="177.871" height="147.907" viewBox="0 0 177.871 147.907"><g id="Group_15" data-name="Group 15" transform="translate(-43.554 -55.571)"><g id="Group_11" data-name="Group 11" transform="translate(172.488 154.54)"><g id="Group_10" data-name="Group 10"><g id="Group_9" data-name="Group 9"><path id="Path_17" data-name="Path 17" d="M207.627,220.863a26.63,26.63,0,1,1,37.661-37.66" transform="translate(-199.829 -175.403)" fill="none" stroke="#344154" stroke-linecap="round" stroke-linejoin="round" stroke-width="4.918"></path></g></g><line id="Line_8" data-name="Line 8" y2="28.779" transform="translate(27.686 14.469)" fill="none" stroke="#344154" stroke-linecap="round" stroke-width="5"></line><line id="Line_9" data-name="Line 9" x2="27.081" transform="translate(14.53 28.472)" fill="none" stroke="#344154" stroke-linecap="round" stroke-width="5"></line></g><g id="Group_14" data-name="Group 14" transform="translate(46.013 58.03)"><path id="Path_18" data-name="Path 18" d="M67.239,77.466,62.6,65.273A11.238,11.238,0,0,0,52.1,58.03H46.013" transform="translate(-46.013 -58.03)" fill="none" stroke="#344154" stroke-linecap="round" stroke-width="4.918"></path><g id="Group_12" data-name="Group 12" transform="translate(50.803 102.285)"><path id="Path_19" data-name="Path 19" d="M126.3,191.678a9.252,9.252,0,1,1-9.252-9.252A9.251,9.251,0,0,1,126.3,191.678Z" transform="translate(-107.798 -182.426)" fill="none" stroke="#344154" stroke-linecap="round" stroke-width="4.918"></path><path id="Path_20" data-name="Path 20" d="M181.535,191.678a9.251,9.251,0,1,1-9.252-9.252A9.251,9.251,0,0,1,181.535,191.678Z" transform="translate(-117.616 -182.426)" fill="none" stroke="#344154" stroke-linecap="round" stroke-width="4.918"></path></g><path id="Path_21" data-name="Path 21" d="M105.79,140.267h70.019l14.131-43.908a11.249,11.249,0,0,0-10.707-14.692H71.828l20.021,60.84a15.366,15.366,0,0,0,14.6,10.563h61.507" transform="translate(-50.602 -62.231)" fill="none" stroke="#344154" stroke-linecap="round" stroke-width="4.918"></path><g id="Group_13" data-name="Group 13" transform="translate(48.248 27.255)"><line id="Line_10" data-name="Line 10" x2="13.88" y2="42.931" transform="translate(27.458 0.02)" fill="none" stroke="#344154" stroke-linecap="round" stroke-width="4.918"></line><line id="Line_11" data-name="Line 11" x2="13.154" y2="42.951" transform="translate(55.949)" fill="none" stroke="#344154" stroke-linecap="round" stroke-width="4.918"></line><line id="Line_12" data-name="Line 12" x2="13.882" y2="42.936" fill="none" stroke="#344154" stroke-linecap="round" stroke-width="4.918"></line></g><line id="Line_13" data-name="Line 13" x2="68.594" transform="translate(31.534 48.066)" fill="none" stroke="#344154" stroke-linecap="round" stroke-width="4.918"></line><path id="Path_22" data-name="Path 22" d="M203.644,91.364a4.9,4.9,0,0,0-4-2.033H186.678l9.684,31.295,7.993-24.835A4.9,4.9,0,0,0,203.644,91.364Z" transform="translate(-71.016 -63.594)" fill="#ff6d3b"></path></g></g></svg> 