<?xml version="1.0" encoding="UTF-8"?> <svg xmlns="http://www.w3.org/2000/svg" width="177.871" height="164.454" viewBox="0 0 177.871 164.454"><g id="Group_31" data-name="Group 31" transform="translate(-871.574 -650.064)"><g id="Group_4" data-name="Group 4" transform="translate(842.099 611.477)"><g id="Group_2" data-name="Group 2" transform="translate(98.687 100.483)"><path id="Path_3" data-name="Path 3" d="M129.5,148.642a14.328,14.328,0,0,1,20.262-20.262" transform="translate(-125.304 -124.183)" fill="none" stroke="#344154" stroke-linecap="round" stroke-linejoin="round" stroke-width="4.918"></path><g id="Group_1" data-name="Group 1" transform="translate(10.547 9.904)"><path id="Path_4" data-name="Path 4" d="M226.243,156.169s5.6,5.921,7.737,13.245c2.868,9.828,4.241,18.034,12.2,26" transform="translate(-164.627 -143.206)" fill="none" stroke="#344154" stroke-linecap="round" stroke-width="4.918"></path><path id="Path_5" data-name="Path 5" d="M187.664,158.184c-8.019-8.577-9.742-11.176-12.682-10.609-3.332.643-3.682,4.306-3.7,7.4" transform="translate(-148.959 -140.735)" fill="none" stroke="#344154" stroke-linecap="round" stroke-width="4.918"></path><path id="Path_6" data-name="Path 6" d="M202.844,154.2c-8.019-8.577-9.741-11.176-12.681-10.609-3.332.643-3.683,4.307-3.7,7.4" transform="translate(-153.287 -139.599)" fill="none" stroke="#344154" stroke-linecap="round" stroke-width="4.918"></path><path id="Path_7" data-name="Path 7" d="M219.711,151.909c-8.019-8.577-9.742-11.176-12.681-10.609-3.332.643-3.683,4.307-3.7,7.405" transform="translate(-158.095 -138.946)" fill="none" stroke="#344154" stroke-linecap="round" stroke-width="4.918"></path><path id="Path_8" data-name="Path 8" d="M223.49,246.807l-6.019-6.019a3.561,3.561,0,0,1,0-5.036l27.937-27.938a3.56,3.56,0,0,1,5.036,0l6.019,6.019" transform="translate(-161.829 -157.631)" fill="none" stroke="#344154" stroke-linecap="round" stroke-width="4.918"></path><path id="Path_9" data-name="Path 9" d="M198.073,213.785l-8.283-8.282c-12.831-12.832-20.185-12.92-30.218-13.882,0,0-7.508-1.148-12.127-6.5-3.981-4.608,1.679-11.249,6.816-7.978a13.475,13.475,0,0,1,1.47,1.09,8.756,8.756,0,0,0,8.413,1.735h0a5.3,5.3,0,0,0,2.08-8.784L165,169.965l-23.5-23.5a4.938,4.938,0,0,1,0-6.984h0a4.938,4.938,0,0,1,6.984,0l20.65,20.65" transform="translate(-140.057 -138.036)" fill="none" stroke="#344154" stroke-linecap="round" stroke-width="4.918"></path></g></g><g id="Group_3" data-name="Group 3" transform="translate(31.934 41.046)"><path id="Path_10" data-name="Path 10" d="M73.113,88.6,31.934,64.821l41.18-23.775,41.18,23.775Z" transform="translate(-31.934 -41.046)" fill="none" stroke="#344154" stroke-linecap="round" stroke-linejoin="round" stroke-width="4.918"></path><path id="Path_11" data-name="Path 11" d="M54.106,68.469,79.434,53.847l25.329,14.623L79.434,83.093Z" transform="translate(-38.254 -44.695)" fill="#ff6d3b"></path><path id="Path_12" data-name="Path 12" d="M92.521,134.422,73.113,145.627l-41.18-23.775V74.3" transform="translate(-31.934 -50.526)" fill="none" stroke="#344154" stroke-linecap="round" stroke-width="4.918"></path><line id="Line_2" data-name="Line 2" y2="26.503" transform="translate(82.36 23.775)" fill="none" stroke="#344154" stroke-linecap="round" stroke-width="4.918"></line><line id="Line_3" data-name="Line 3" y2="31.584" transform="translate(41.18 47.551)" fill="none" stroke="#344154" stroke-linecap="round" stroke-width="4.918"></line></g></g></g></svg> 