<?xml version="1.0" encoding="UTF-8"?> <svg xmlns="http://www.w3.org/2000/svg" width="221.571" height="171.786" viewBox="0 0 221.571 171.786"><g id="Group_30" data-name="Group 30" transform="translate(-383.874 -642.731)"><g id="Group_28" data-name="Group 28" transform="translate(-907)"><path id="Path_30" data-name="Path 30" d="M129.5,148.642a14.328,14.328,0,0,1,20.262-20.262" transform="translate(1278.481 587.777)" fill="none" stroke="#344154" stroke-linecap="round" stroke-linejoin="round" stroke-width="4.918"></path><g id="Group_27" data-name="Group 27" transform="translate(1414.333 721.864)"><path id="Path_4" data-name="Path 4" d="M226.243,156.169s5.6,5.921,7.737,13.245c2.868,9.828,4.241,18.034,12.2,26" transform="translate(-164.627 -143.206)" fill="none" stroke="#344154" stroke-linecap="round" stroke-width="4.918"></path><path id="Path_5" data-name="Path 5" d="M187.664,158.184c-8.019-8.577-9.742-11.176-12.682-10.609-3.332.643-3.682,4.306-3.7,7.4" transform="translate(-148.959 -140.735)" fill="none" stroke="#344154" stroke-linecap="round" stroke-width="4.918"></path><path id="Path_6" data-name="Path 6" d="M202.844,154.2c-8.019-8.577-9.741-11.176-12.681-10.609-3.332.643-3.683,4.307-3.7,7.4" transform="translate(-153.287 -139.599)" fill="none" stroke="#344154" stroke-linecap="round" stroke-width="4.918"></path><path id="Path_7" data-name="Path 7" d="M219.711,151.909c-8.019-8.577-9.742-11.176-12.681-10.609-3.332.643-3.683,4.307-3.7,7.405" transform="translate(-158.095 -138.946)" fill="none" stroke="#344154" stroke-linecap="round" stroke-width="4.918"></path><path id="Path_8" data-name="Path 8" d="M223.49,246.807l-6.019-6.019a3.561,3.561,0,0,1,0-5.036l27.937-27.938a3.56,3.56,0,0,1,5.036,0l6.019,6.019" transform="translate(-161.829 -157.631)" fill="none" stroke="#344154" stroke-linecap="round" stroke-width="4.918"></path><path id="Path_9" data-name="Path 9" d="M198.073,213.785l-8.283-8.282c-12.831-12.832-20.185-12.92-30.218-13.882,0,0-7.508-1.148-12.127-6.5-3.981-4.608,1.679-11.249,6.816-7.978a13.475,13.475,0,0,1,1.47,1.09,8.756,8.756,0,0,0,8.413,1.735h0a5.3,5.3,0,0,0,2.08-8.784L165,169.965l-23.5-23.5a4.938,4.938,0,0,1,0-6.984h0a4.938,4.938,0,0,1,6.984,0l20.65,20.65" transform="translate(-140.057 -138.036)" fill="none" stroke="#344154" stroke-linecap="round" stroke-width="4.918"></path></g></g><g id="Group_29" data-name="Group 29" transform="translate(386.333 645.19)"><path id="Path_18" data-name="Path 18" d="M63.109,73.684l-3.733-9.82a9.051,9.051,0,0,0-8.46-5.834h-4.9" transform="translate(-46.013 -58.03)" fill="none" stroke="#344154" stroke-linecap="round" stroke-width="4.918"></path><g id="Group_12" data-name="Group 12" transform="translate(40.917 82.382)"><path id="Path_19" data-name="Path 19" d="M122.7,189.878a7.451,7.451,0,1,1-7.452-7.452A7.451,7.451,0,0,1,122.7,189.878Z" transform="translate(-107.798 -182.426)" fill="none" stroke="#344154" stroke-linecap="round" stroke-width="4.918"></path><path id="Path_20" data-name="Path 20" d="M177.935,189.878a7.451,7.451,0,1,1-7.452-7.452A7.451,7.451,0,0,1,177.935,189.878Z" transform="translate(-126.453 -182.426)" fill="none" stroke="#344154" stroke-linecap="round" stroke-width="4.918"></path></g><path id="Path_21" data-name="Path 21" d="M99.182,128.864h56.394L166.957,93.5a9.06,9.06,0,0,0-8.624-11.833H71.828l16.125,49a12.376,12.376,0,0,0,11.756,8.507h49.538" transform="translate(-54.732 -66.013)" fill="none" stroke="#344154" stroke-linecap="round" stroke-width="4.918"></path><g id="Group_13" data-name="Group 13" transform="translate(38.859 21.952)"><line id="Line_10" data-name="Line 10" x2="11.179" y2="34.577" transform="translate(22.115 0.016)" fill="none" stroke="#344154" stroke-linecap="round" stroke-width="4.918"></line><line id="Line_11" data-name="Line 11" x2="10.595" y2="34.593" transform="translate(45.062)" fill="none" stroke="#344154" stroke-linecap="round" stroke-width="4.918"></line><line id="Line_12" data-name="Line 12" x2="11.181" y2="34.581" fill="none" stroke="#344154" stroke-linecap="round" stroke-width="4.918"></line></g><line id="Line_13" data-name="Line 13" x2="55.246" transform="translate(25.398 38.713)" fill="none" stroke="#344154" stroke-linecap="round" stroke-width="4.918"></line><path id="Path_22" data-name="Path 22" d="M200.343,90.968a3.944,3.944,0,0,0-3.219-1.637H186.678l7.8,25.205,6.438-20A3.945,3.945,0,0,0,200.343,90.968Z" transform="translate(-93.522 -68.602)" fill="#ff6d3b"></path></g></g></svg> 