<?xml version="1.0" encoding="UTF-8"?> <svg xmlns="http://www.w3.org/2000/svg" width="169.124" height="175.445" viewBox="0 0 169.124 175.445"><g id="Group_8" data-name="Group 8" transform="translate(-46.475 -38.587)"><g id="Group_7" data-name="Group 7" transform="translate(48.934 41.046)"><g id="Group_5" data-name="Group 5" transform="translate(119.43 106.34)"><path id="Path_13" data-name="Path 13" d="M207.335,219.161a25.633,25.633,0,0,1,36.251-36.25" transform="translate(-199.829 -175.403)" fill="none" stroke="#344154" stroke-linecap="round" stroke-linejoin="round" stroke-width="4.918"></path></g><g id="Group_6" data-name="Group 6"><path id="Path_14" data-name="Path 14" d="M122.609,126.119,48.934,83.582l73.675-42.536,73.677,42.536Z" transform="translate(-48.934 -41.046)" fill="none" stroke="#344154" stroke-linecap="round" stroke-linejoin="round" stroke-width="4.918"></path><path id="Path_15" data-name="Path 15" d="M84.767,87.895,130.08,61.732,175.4,87.895,130.08,114.058Z" transform="translate(-56.406 -45.36)" fill="#ff6d3b"></path><path id="Path_16" data-name="Path 16" d="M157.332,202.351,122.609,222.4,48.934,179.863V94.789" transform="translate(-48.934 -52.253)" fill="none" stroke="#344154" stroke-linecap="round" stroke-width="4.918"></path><line id="Line_4" data-name="Line 4" y2="47.417" transform="translate(147.352 42.536)" fill="none" stroke="#344154" stroke-linecap="round" stroke-width="4.918"></line><line id="Line_5" data-name="Line 5" y2="56.507" transform="translate(73.675 85.073)" fill="none" stroke="#344154" stroke-linecap="round" stroke-width="4.918"></line></g></g><line id="Line_6" data-name="Line 6" y2="27.702" transform="translate(195.013 161.314)" fill="none" stroke="#344154" stroke-linecap="round" stroke-width="5"></line><line id="Line_7" data-name="Line 7" x2="25.327" transform="translate(182.746 175.165)" fill="none" stroke="#344154" stroke-linecap="round" stroke-width="5"></line></g></svg> 