<?xml version="1.0" encoding="UTF-8"?> <svg xmlns="http://www.w3.org/2000/svg" width="115.821" height="151.715" viewBox="0 0 115.821 151.715"><g id="dodaj_klienta-01" transform="translate(-111.544 -44.479)"><g id="Group_18" data-name="Group 18" transform="translate(180.026 148.855)"><g id="Group_17" data-name="Group 17"><g id="Group_16" data-name="Group 16"><path id="Path_23" data-name="Path 23" d="M207.353,219.264a25.694,25.694,0,1,1,36.337-36.336" transform="translate(-199.829 -175.403)" fill="none" stroke="#344154" stroke-linecap="round" stroke-linejoin="round" stroke-width="4.918"></path></g></g><line id="Line_14" data-name="Line 14" y2="27.767" transform="translate(26.713 13.961)" fill="none" stroke="#344154" stroke-linecap="round" stroke-width="5"></line><line id="Line_15" data-name="Line 15" x2="25.387" transform="translate(14.416 27.844)" fill="none" stroke="#344154" stroke-linecap="round" stroke-width="5"></line></g><g id="Group_23" data-name="Group 23" transform="translate(114.003 46.938)"><g id="Group_22" data-name="Group 22"><g id="Group_21" data-name="Group 21"><g id="Group_20" data-name="Group 20"><g id="Group_19" data-name="Group 19"><path id="Path_24" data-name="Path 24" d="M163.473,99.163l9.205,7.562a12.165,12.165,0,0,1,4.444,9.4v19.788A10.923,10.923,0,0,1,166.2,146.835h0" transform="translate(-116.293 -57.731)" fill="none" stroke="#344154" stroke-linecap="round" stroke-linejoin="round" stroke-width="4.918"></path><path id="Path_25" data-name="Path 25" d="M117.651,99.163l-9.205,7.562a12.166,12.166,0,0,0-4.443,9.4v19.788a10.923,10.923,0,0,0,10.924,10.923h0" transform="translate(-104.003 -57.731)" fill="none" stroke="#344154" stroke-linecap="round" stroke-linejoin="round" stroke-width="4.918"></path><path id="Path_26" data-name="Path 26" d="M163.013,124.26l.048,6.482v64.59a9.51,9.51,0,0,1-9.511,9.511h-2.988" transform="translate(-113.625 -62.917)" fill="none" stroke="#344154" stroke-linecap="round" stroke-linejoin="round" stroke-width="4.918"></path><path id="Path_27" data-name="Path 27" d="M118.411,124.26l-.048,6.482v64.59a9.51,9.51,0,0,0,9.511,9.511h0a9.511,9.511,0,0,0,9.511-9.511V157.654" transform="translate(-106.971 -62.917)" fill="none" stroke="#344154" stroke-linecap="round" stroke-linejoin="round" stroke-width="4.918"></path><circle id="Ellipse_1" data-name="Ellipse 1" cx="19.117" cy="19.117" r="19.117" transform="translate(11.296)" fill="none" stroke="#344154" stroke-linecap="round" stroke-linejoin="round" stroke-width="4.918"></circle><path id="Path_28" data-name="Path 28" d="M140.866,56.774a11.225,11.225,0,0,0-5.657,1.531,11.288,11.288,0,0,1,0,19.566,11.309,11.309,0,1,0,5.657-21.1Z" transform="translate(-110.452 -48.971)" fill="#ff6d3b"></path></g></g></g></g></g></g></svg> 