<?xml version="1.0" encoding="UTF-8"?> <svg xmlns="http://www.w3.org/2000/svg" width="177.318" height="192.451" viewBox="0 0 177.318 192.451"><g id="Group_32" data-name="Group 32" transform="translate(-1335.127 -622.067)"><path id="Path_29" data-name="Path 29" d="M129.5,148.642a14.328,14.328,0,0,1,20.262-20.262" transform="translate(1278.481 587.777)" fill="none" stroke="#344154" stroke-linecap="round" stroke-linejoin="round" stroke-width="4.918"></path><g id="Group_24" data-name="Group 24" transform="translate(1414.333 721.864)"><path id="Path_4" data-name="Path 4" d="M226.243,156.169s5.6,5.921,7.737,13.245c2.868,9.828,4.241,18.034,12.2,26" transform="translate(-164.627 -143.206)" fill="none" stroke="#344154" stroke-linecap="round" stroke-width="4.918"></path><path id="Path_5" data-name="Path 5" d="M187.664,158.184c-8.019-8.577-9.742-11.176-12.682-10.609-3.332.643-3.682,4.306-3.7,7.4" transform="translate(-148.959 -140.735)" fill="none" stroke="#344154" stroke-linecap="round" stroke-width="4.918"></path><path id="Path_6" data-name="Path 6" d="M202.844,154.2c-8.019-8.577-9.741-11.176-12.681-10.609-3.332.643-3.683,4.307-3.7,7.4" transform="translate(-153.287 -139.599)" fill="none" stroke="#344154" stroke-linecap="round" stroke-width="4.918"></path><path id="Path_7" data-name="Path 7" d="M219.711,151.909c-8.019-8.577-9.742-11.176-12.681-10.609-3.332.643-3.683,4.307-3.7,7.405" transform="translate(-158.095 -138.946)" fill="none" stroke="#344154" stroke-linecap="round" stroke-width="4.918"></path><path id="Path_8" data-name="Path 8" d="M223.49,246.807l-6.019-6.019a3.561,3.561,0,0,1,0-5.036l27.937-27.938a3.56,3.56,0,0,1,5.036,0l6.019,6.019" transform="translate(-161.829 -157.631)" fill="none" stroke="#344154" stroke-linecap="round" stroke-width="4.918"></path><path id="Path_9" data-name="Path 9" d="M198.073,213.785l-8.283-8.282c-12.831-12.832-20.185-12.92-30.218-13.882,0,0-7.508-1.148-12.127-6.5-3.981-4.608,1.679-11.249,6.816-7.978a13.475,13.475,0,0,1,1.47,1.09,8.756,8.756,0,0,0,8.413,1.735h0a5.3,5.3,0,0,0,2.08-8.784L165,169.965l-23.5-23.5a4.938,4.938,0,0,1,0-6.984h0a4.938,4.938,0,0,1,6.984,0l20.65,20.65" transform="translate(-140.057 -138.036)" fill="none" stroke="#344154" stroke-linecap="round" stroke-width="4.918"></path></g><g id="Group_26" data-name="Group 26" transform="translate(1337.586 624.526)"><g id="Group_21" data-name="Group 21"><g id="Group_20" data-name="Group 20"><g id="Group_19" data-name="Group 19"><path id="Path_24" data-name="Path 24" d="M163.473,99.163l9.205,7.562a12.165,12.165,0,0,1,4.444,9.4v19.788A10.923,10.923,0,0,1,166.2,146.835h0" transform="translate(-116.293 -57.731)" fill="none" stroke="#344154" stroke-linecap="round" stroke-linejoin="round" stroke-width="4.918"></path><path id="Path_25" data-name="Path 25" d="M117.651,99.163l-9.205,7.562a12.166,12.166,0,0,0-4.443,9.4v19.788a10.923,10.923,0,0,0,10.924,10.923h0" transform="translate(-104.003 -57.731)" fill="none" stroke="#344154" stroke-linecap="round" stroke-linejoin="round" stroke-width="4.918"></path><path id="Path_26" data-name="Path 26" d="M163.013,124.26l.048,6.482v64.59a9.51,9.51,0,0,1-9.511,9.511h-2.988" transform="translate(-113.625 -62.917)" fill="none" stroke="#344154" stroke-linecap="round" stroke-linejoin="round" stroke-width="4.918"></path><path id="Path_27" data-name="Path 27" d="M118.411,124.26l-.048,6.482v64.59a9.51,9.51,0,0,0,9.511,9.511h0a9.511,9.511,0,0,0,9.511-9.511V157.654" transform="translate(-106.971 -62.917)" fill="none" stroke="#344154" stroke-linecap="round" stroke-linejoin="round" stroke-width="4.918"></path><circle id="Ellipse_1" data-name="Ellipse 1" cx="19.117" cy="19.117" r="19.117" transform="translate(11.296)" fill="none" stroke="#344154" stroke-linecap="round" stroke-linejoin="round" stroke-width="4.918"></circle><path id="Path_28" data-name="Path 28" d="M140.866,56.774a11.225,11.225,0,0,0-5.657,1.531,11.288,11.288,0,0,1,0,19.566,11.309,11.309,0,1,0,5.657-21.1Z" transform="translate(-110.452 -48.971)" fill="#ff6d3b"></path></g></g></g></g></g></svg> 