<?xml version="1.0" encoding="UTF-8"?> <svg xmlns="http://www.w3.org/2000/svg" width="423.721" height="488.306" viewBox="0 0 423.721 488.306"><g id="Group_35" data-name="Group 35" transform="translate(-1058.041 -801.741)" opacity="0.17"><path id="Path_31" data-name="Path 31" d="M1281.073,909.664h-67.806v135.614h67.806" transform="translate(198.23 136.851)" fill="none" stroke="#344154" stroke-linecap="round" stroke-linejoin="round" stroke-width="4.918"></path><path id="Path_32" data-name="Path 32" d="M1260.206,987.463h-30.858V925.745" transform="translate(219.097 157.718)" fill="none" stroke="#344154" stroke-linecap="round" stroke-linejoin="round" stroke-width="4.918"></path><path id="Path_33" data-name="Path 33" d="M1157.015,878.365v282.083a24.458,24.458,0,0,0,24.458,24.458h172.591" transform="translate(125.238 96.237)" fill="none" stroke="#344154" stroke-linecap="round" stroke-linejoin="round" stroke-width="4.918"></path><path id="Path_34" data-name="Path 34" d="M1385.318,806.524h-182.19l-70.2,100.713a42.065,42.065,0,1,0,84.129,0,42.065,42.065,0,1,0,84.129,0,42.066,42.066,0,0,0,84.131,0" transform="translate(93.984 3.016)" fill="none" stroke="#344154" stroke-linecap="round" stroke-linejoin="round" stroke-width="4.918"></path><g id="Group_33" data-name="Group 33" transform="translate(1115.465 823.279)"><path id="Path_35" data-name="Path 35" d="M1084.423,862.311a15.361,15.361,0,0,0,30.721,0c0-8.485-6.3-12.4-15.362-15.362-8.062-2.631-15.36-6.877-15.36-15.359a15.361,15.361,0,0,1,30.721,0" transform="translate(-1084.423 -807.669)" fill="none" stroke="#344154" stroke-linecap="round" stroke-linejoin="round" stroke-width="4.918"></path><line id="Line_16" data-name="Line 16" y2="8.666" transform="translate(15.36)" fill="none" stroke="#344154" stroke-linecap="round" stroke-linejoin="round" stroke-width="4.918"></line><line id="Line_17" data-name="Line 17" y2="8.666" transform="translate(15.36 69.999)" fill="none" stroke="#344154" stroke-linecap="round" stroke-linejoin="round" stroke-width="4.918"></line></g><path id="Path_36" data-name="Path 36" d="M1182.429,862.559a58.36,58.36,0,1,1-58.362-58.359A58.36,58.36,0,0,1,1182.429,862.559Z" transform="translate(6.758 0)" fill="none" stroke="#344154" stroke-linecap="round" stroke-linejoin="round" stroke-width="4.918"></path><g id="Group_34" data-name="Group 34" transform="translate(1060.5 958.418)"><path id="Path_37" data-name="Path 37" d="M1107.982,913.451l21.285,17.485a28.133,28.133,0,0,1,10.273,21.735v45.754a25.258,25.258,0,0,1-25.258,25.258h0" transform="translate(-998.887 -816.654)" fill="none" stroke="#344154" stroke-linecap="round" stroke-linejoin="round" stroke-width="4.918"></path><path id="Path_38" data-name="Path 38" d="M1092.055,913.451l-21.283,17.485a28.134,28.134,0,0,0-10.272,21.735v45.754a25.258,25.258,0,0,0,25.258,25.258h0" transform="translate(-1060.5 -816.654)" fill="none" stroke="#344154" stroke-linecap="round" stroke-linejoin="round" stroke-width="4.918"></path><path id="Path_39" data-name="Path 39" d="M1126.463,933.489l.11,14.99v149.354a21.99,21.99,0,0,1-21.992,21.99h-6.907" transform="translate(-1012.263 -790.652)" fill="none" stroke="#344154" stroke-linecap="round" stroke-linejoin="round" stroke-width="4.918"></path><path id="Path_40" data-name="Path 40" d="M1072.078,933.489l-.113,14.99v149.354a21.991,21.991,0,0,0,21.993,21.99h0a21.99,21.99,0,0,0,21.99-21.99V1010.7" transform="translate(-1045.623 -790.652)" fill="none" stroke="#344154" stroke-linecap="round" stroke-linejoin="round" stroke-width="4.918"></path><circle id="Ellipse_2" data-name="Ellipse 2" cx="44.205" cy="44.205" r="44.205" transform="matrix(0.023, -1, 1, 0.023, 25.129, 88.388)" fill="none" stroke="#344154" stroke-linecap="round" stroke-linejoin="round" stroke-width="4.918"></circle></g><path id="Path_41" data-name="Path 41" d="M1168.708,1062.8H1274.6l-107.75-107.753v105.894A1.861,1.861,0,0,0,1168.708,1062.8Z" transform="translate(138.003 195.742)" fill="#8aa0b2"></path></g></svg> 