<svg xmlns="http://www.w3.org/2000/svg" width="22" height="22" viewBox="0 0 22 22">
  <g id="icons" transform="translate(-2 -2)">
    <g id="exit2" transform="translate(2 2)">
      <path id="Path_1" data-name="Path 1" d="M12.2,10.8a2.206,2.206,0,0,0,2.2-2.2V4.2a2.2,2.2,0,1,0-4.4,0V8.6A2.206,2.206,0,0,0,12.2,10.8Z" transform="translate(-1.2 -2)" fill="#f04e23"/>
      <path id="Path_2" data-name="Path 2" d="M20.81,4.94h0A1.5,1.5,0,0,0,19.6,4.5a1.692,1.692,0,0,0-1.65,1.65,2.307,2.307,0,0,0,.44,1.21h0a7.475,7.475,0,0,1,2.2,5.39,7.7,7.7,0,0,1-15.4,0A7.387,7.387,0,0,1,7.5,7.36h0a1.766,1.766,0,0,0,.55-1.21A1.692,1.692,0,0,0,6.4,4.5a2.307,2.307,0,0,0-1.21.44h0a11,11,0,1,0,15.62,0Z" transform="translate(-2 -1.75)" fill="#f04e23"/>
    </g>
  </g>
</svg>
